<?xml version="1.0" encoding="UTF-8"?>
<svg xmlns="http://www.w3.org/2000/svg" xmlns:xlink="http://www.w3.org/1999/xlink" id="Layer_1" data-name="Layer 1" viewBox="0 0 1024.3 796.41">
  <defs>
    <style>
      .cls-1 {
        clip-path: url(#clippath);
      }

      .cls-2, .cls-3 {
        fill: none;
      }

      .cls-2, .cls-4, .cls-5, .cls-6, .cls-7 {
        stroke-width: 0px;
      }

      .cls-3 {
        stroke: #ff3939;
        stroke-miterlimit: 10;
        stroke-width: 100px;
      }

      .cls-8 {
        clip-path: url(#clippath-1);
      }

      .cls-5 {
        fill: #fff;
      }

      .cls-6 {
        fill: #ff3939;
      }

      .cls-7 {
        fill: #fcc74f;
      }
    </style>
    <clipPath id="clippath">
      <path class="cls-2" d="m498.18,301.01l-28.2,29.13c-54.7,56.5-143.39,56.5-198.09,0l-28.2-29.13c-8.36-8.63-8.36-22.62,0-31.25l28.2-29.13c54.7-56.5,143.39-56.5,198.09,0l28.2,29.13c8.36,8.63,8.36,22.62,0,31.25Z"></path>
    </clipPath>
    <clipPath id="clippath-1">
      <path class="cls-2" d="m801.52,301.01l-28.2,29.13c-54.7,56.5-143.39,56.5-198.09,0l-28.2-29.13c-8.36-8.63-8.36-22.62,0-31.25l28.2-29.13c54.7-56.5,143.39-56.5,198.09,0l28.2,29.13c8.36,8.63,8.36,22.62,0,31.25Z"></path>
    </clipPath>
  </defs>
  <polyline class="cls-3" points="605.24 445.37 873.18 728.1 992.44 629.46"></polyline>
  <polyline class="cls-3" points="379.48 483.14 289.04 697.18 112.09 565.07 43.45 685.59"></polyline>
  <rect class="cls-6" x="221.57" y="115.99" width="602.05" height="403.33"></rect>
  <polygon class="cls-7" points="542.23 516.63 421.14 418.22 388.36 570.77 339.7 422.52 229.64 533.13 268.86 382.11 116.47 415.66 231.11 309.81 84.78 255.65 238.44 228.58 144.62 103.9 288.53 164.21 277.01 8.6 365.47 137.14 439.9 0 444.83 155.96 581.58 80.83 501.41 214.69 657.08 225.43 517.26 294.7 642.41 387.89 487.34 370.57 542.23 516.63"></polygon>
  <g>
    <path class="cls-5" d="m498.18,301.01l-28.2,29.13c-54.7,56.5-143.39,56.5-198.09,0l-28.2-29.13c-8.36-8.63-8.36-22.62,0-31.25l28.2-29.13c54.7-56.5,143.39-56.5,198.09,0l28.2,29.13c8.36,8.63,8.36,22.62,0,31.25Z"></path>
    <g class="cls-1">
      <ellipse class="cls-4" cx="379.44" cy="285.39" rx="95.16" ry="98.29"></ellipse>
    </g>
    <path class="cls-5" d="m801.52,301.01l-28.2,29.13c-54.7,56.5-143.39,56.5-198.09,0l-28.2-29.13c-8.36-8.63-8.36-22.62,0-31.25l28.2-29.13c54.7-56.5,143.39-56.5,198.09,0l28.2,29.13c8.36,8.63,8.36,22.62,0,31.25Z"></path>
    <g class="cls-8">
      <ellipse class="cls-4" cx="682.79" cy="285.39" rx="95.16" ry="98.29"></ellipse>
    </g>
  </g>
</svg>
